<svg viewBox="0 0 512 512" xmlns="http://www.w3.org/2000/svg">
  <path fill="#226bbe" d="
    M190.5,68.8 L225.3,128 H224 H152 c-22.1,0,-40,-17.9,-40,-40 s17.9,-40,40,-40 h2.2 c14.9,0,28.8,7.9,36.3,20.8 M64,88 c0,14.4,3.5,28,9.6,40 H32 c-17.7,0,-32,14.3,-32,32 v64 c0,17.7,14.3,32,32,32 H480 c17.7,0,32,-14.3,32,-32 V160 c0,-17.7,-14.3,-32,-32,-32 H438.4 c6.1,-12,9.6,-25.6,9.6,-40 c0,-48.6,-39.4,-88,-88,-88 h-2.2 c-31.9,0,-61.5,16.9,-77.7,44.4 L256,85.5 l-24.1,-41 C215.7,16.9,186.1,0,154.2,0 H152 C103.4,0,64,39.4,64,88 m336,0 c0,22.1,-17.9,40,-40,40 H288 h-1.3 l34.8,-59.2 C329.1,55.9,342.9,48,357.8,48 H360 c22.1,0,40,17.9,40,40 M32,288 V464 c0,26.5,21.5,48,48,48 H224 V288 H32 M288,512 H432 c26.5,0,48,-21.5,48,-48 V288 H288 V512 Z
  "></path>
</svg>